<svg width="24" height="24" viewBox="0 0 24 24" fill="none" xmlns="http://www.w3.org/2000/svg">
<path fill-rule="evenodd" clip-rule="evenodd" d="M5.99995 7.5572V4H3.99995V7.58579L2.29285 9.29289L3.70706 10.7071L3.99995 10.4142V16H2.99995V18H3.99995V20H5.99995V18H18V20H20V18H21V16H20V10.4142L20.2928 10.7071L21.7071 9.29289L20 7.58579V4H18V7.5572C17.9509 7.59921 17.896 7.64529 17.8355 7.69479C17.5214 7.95173 17.0611 8.29713 16.4855 8.64251C15.3241 9.33934 13.7541 10 12 10C10.2458 10 8.67584 9.33934 7.51445 8.64251C6.93882 8.29713 6.47848 7.95173 6.16444 7.69479C6.10394 7.64529 6.04904 7.59921 5.99995 7.5572ZM5.99995 10.052V16H18V10.052C17.8471 10.1527 17.6851 10.2551 17.5144 10.3575C16.1758 11.1607 14.2458 12 12 12C9.75407 12 7.82407 11.1607 6.48546 10.3575C6.31483 10.2551 6.15282 10.1527 5.99995 10.052Z" fill="white"/>
</svg>
