<?xml version="1.0" standalone="no"?>
<!DOCTYPE svg PUBLIC "-//W3C//DTD SVG 20010904//EN"
 "http://www.w3.org/TR/2001/REC-SVG-20010904/DTD/svg10.dtd">
<svg version="1.0" xmlns="http://www.w3.org/2000/svg"
 width="512.000000pt" height="512.000000pt" viewBox="0 0 512.000000 512.000000"
 preserveAspectRatio="xMidYMid meet">

<g transform="translate(0.000000,512.000000) scale(0.100000,-0.100000)"
fill="#fff" stroke="none">
<path d="M78 4789 c-23 -12 -46 -35 -58 -59 -20 -39 -20 -56 -20 -1720 0
-1665 0 -1681 20 -1720 13 -26 34 -47 60 -60 38 -20 57 -20 885 -20 l845 0 0
-300 0 -300 -90 0 c-71 0 -99 -4 -130 -20 -45 -23 -80 -80 -80 -130 0 -50 35
-107 80 -130 38 -20 57 -20 970 -20 913 0 932 0 970 20 45 23 80 80 80 130 0
50 -35 107 -80 130 -31 16 -59 20 -130 20 l-90 0 0 300 0 300 845 0 c828 0
847 0 885 20 26 13 47 34 60 60 20 39 20 55 20 1720 0 1665 0 1681 -20 1720
-13 26 -34 47 -60 60 -39 20 -53 20 -2482 20 -2413 -1 -2443 -1 -2480 -21z
m4742 -1779 l0 -1500 -2260 0 -2260 0 0 1500 0 1500 2260 0 2260 0 0 -1500z
m-1810 -2100 l0 -300 -450 0 -450 0 0 300 0 300 450 0 450 0 0 -300z"/>
<path d="M1546 4100 c-237 -38 -443 -140 -611 -305 -166 -162 -272 -356 -316
-580 -20 -99 -18 -330 4 -427 93 -430 425 -762 855 -855 97 -22 328 -24 427
-4 224 44 418 150 580 316 420 431 420 1099 0 1530 -158 162 -341 264 -560
311 -85 19 -298 26 -379 14z m4 -715 c0 -387 1 -408 20 -445 13 -26 34 -47 60
-60 37 -19 58 -20 445 -20 l405 0 0 -22 c-1 -42 -65 -193 -112 -263 -323 -485
-1020 -484 -1339 3 -204 312 -159 731 108 996 32 32 89 79 128 104 70 47 221
111 263 112 l22 0 0 -405z m421 375 c221 -81 398 -258 479 -479 49 -134 80
-121 -285 -121 l-315 0 0 315 c0 365 -13 334 121 285z"/>
<path d="M3939 3507 c-47 -31 -71 -81 -66 -136 6 -53 32 -90 83 -116 21 -11
41 -21 44 -23 2 -1 -77 -84 -175 -182 l-180 -180 -161 161 c-128 128 -168 162
-197 169 -108 24 -203 -67 -183 -177 7 -33 38 -69 234 -266 243 -243 261 -257
339 -243 33 7 71 40 289 258 l252 250 11 -34 c33 -99 152 -132 236 -66 49 39
55 69 55 290 0 228 -6 253 -69 295 -33 22 -42 23 -256 23 -214 0 -223 -1 -256
-23z"/>
<path d="M3178 2189 c-43 -22 -78 -81 -78 -129 0 -50 35 -107 80 -130 38 -19
58 -20 630 -20 572 0 592 1 630 20 45 23 80 80 80 130 0 50 -35 107 -80 130
-38 19 -57 20 -632 20 -571 -1 -594 -2 -630 -21z"/>
</g>
</svg>
